<?xml version="1.0" standalone="no"?>
<!DOCTYPE svg PUBLIC "-//W3C//DTD SVG 20010904//EN"
 "http://www.w3.org/TR/2001/REC-SVG-20010904/DTD/svg10.dtd">
<svg version="1.0" xmlns="http://www.w3.org/2000/svg"
 width="400.000000pt" height="400.000000pt" viewBox="0 0 400.000000 400.000000"
 preserveAspectRatio="xMidYMid meet">

<g transform="translate(0.000000,400.000000) scale(0.100000,-0.100000)"
fill="#000000" stroke="none">
<path d="M1905 3753 c-243 -13 -538 -97 -743 -210 -227 -125 -451 -323 -589
-520 l-42 -60 151 -6 c83 -4 183 -7 222 -7 l71 0 23 -49 c21 -47 79 -166 356
-735 134 -275 112 -266 199 -86 31 63 139 286 240 495 l185 380 448 3 c781 5
911 -14 1049 -153 76 -75 113 -151 131 -265 29 -194 -32 -370 -158 -451 -27
-17 -48 -35 -48 -39 0 -5 34 -32 74 -60 136 -94 199 -202 216 -370 l6 -65 12
40 c45 154 58 472 28 665 -46 292 -148 542 -315 770 -238 327 -583 564 -962
664 -166 44 -396 68 -554 59z"/>
<path d="M493 2902 c-171 -298 -245 -571 -245 -902 0 -177 18 -313 63 -474
163 -591 641 -1065 1229 -1220 154 -40 301 -59 460 -59 568 0 1087 264 1422
723 59 82 77 110 134 215 l38 70 -58 -52 c-31 -29 -90 -68 -130 -87 -129 -61
-172 -66 -722 -73 l-494 -6 0 709 -1 709 -352 -702 c-194 -387 -356 -704 -362
-705 -10 -3 -295 560 -723 1429 -123 249 -226 455 -230 457 -4 2 -17 -12 -29
-32z"/>
<path d="M2620 2394 l0 -197 219 5 c197 5 224 8 263 27 66 32 93 79 93 165 0
60 -4 79 -28 118 -46 79 -41 78 -309 78 l-238 0 0 -196z"/>
<path d="M2620 1620 l0 -212 248 4 c265 3 279 6 340 62 71 64 84 191 26 263
-17 21 -51 49 -75 63 -43 25 -49 25 -291 28 l-248 3 0 -211z"/>
</g>
</svg>
