<?xml version="1.0" encoding="UTF-8"?>
<svg version="1.1" xmlns="http://www.w3.org/2000/svg" width="512" height="512">
<path d="M0 0 C0.66752289 0.2253392 1.33504578 0.45067841 2.02279663 0.68284607 C4.23283581 1.43204698 6.43653751 2.19832783 8.640625 2.96484375 C10.22212242 3.50499393 11.80400105 4.04402906 13.38623047 4.58203125 C16.77700318 5.73716012 20.16520137 6.89946401 23.55175781 8.06689453 C28.97863478 9.93598016 34.41439613 11.77828784 39.8515625 13.6171875 C49.99232173 17.04990998 60.12257873 20.51260934 70.24682617 23.99371338 C72.84964118 24.88825828 75.45311447 25.78086716 78.05664062 26.67333984 C82.05776562 28.04636013 86.05534201 29.42925866 90.05023193 30.8203125 C91.50777524 31.32659969 92.96629112 31.83009702 94.42584229 32.33056641 C96.42487094 33.01689003 98.41981651 33.71398389 100.4140625 34.4140625 C102.083479 34.99353638 102.083479 34.99353638 103.78662109 35.5847168 C109.39015762 37.96337706 113.10072514 40.38286894 116.06668854 45.82474232 C117.59750786 49.68478805 117.43700896 53.54849409 117.39233398 57.65112305 C117.40043846 59.08213348 117.40043846 59.08213348 117.40870667 60.54205322 C117.42118049 63.68720852 117.40469512 66.83144492 117.38671875 69.9765625 C117.38687393 72.18309069 117.38836613 74.38961916 117.39112854 76.59614563 C117.39251252 81.22543366 117.37996741 85.85441195 117.35717773 90.48364258 C117.32901008 96.36129254 117.33147138 102.23841969 117.34426785 108.11610699 C117.35129721 112.67977702 117.3433504 117.2433307 117.33101082 121.80698586 C117.32655097 123.97028974 117.32611061 126.13360639 117.33007622 128.29691124 C117.34753167 146.2211369 116.33120791 163.91706192 110.328125 180.96484375 C109.98442871 181.96306152 109.64073242 182.9612793 109.28662109 183.98974609 C103.81272587 199.30835523 95.93657012 213.14159233 85.890625 225.90234375 C85.48295898 226.42425293 85.07529297 226.94616211 84.65527344 227.48388672 C72.92351996 242.33087764 59.26314934 255.8609339 43.890625 266.90234375 C43.25801758 267.35802734 42.62541016 267.81371094 41.97363281 268.28320312 C29.94684521 276.87799959 17.53324816 284.68388807 4.328125 291.33984375 C3.67328125 291.67008545 3.0184375 292.00032715 2.34375 292.34057617 C-4.42867927 295.6752994 -9.56462328 297.79303762 -17.109375 295.90234375 C-19.76685643 294.91308712 -22.23447235 293.67329258 -24.734375 292.33984375 C-25.42241211 291.98341797 -26.11044922 291.62699219 -26.81933594 291.25976562 C-28.92612664 290.15846667 -31.0196814 289.0357116 -33.109375 287.90234375 C-34.05151855 287.3921167 -34.05151855 287.3921167 -35.01269531 286.87158203 C-48.21983314 279.65257606 -60.31969345 271.20766597 -72.109375 261.90234375 C-72.97820312 261.24105469 -73.84703125 260.57976562 -74.7421875 259.8984375 C-102.81734433 237.9620382 -124.33722282 208.58796756 -134.421875 174.33984375 C-134.66454102 173.52612305 -134.90720703 172.71240234 -135.15722656 171.87402344 C-139.40972655 156.62637496 -139.4345572 141.29192129 -139.4453125 125.58984375 C-139.45175278 123.36360593 -139.45848202 121.13736893 -139.46548462 118.91113281 C-139.47738198 114.27520787 -139.48117255 109.63935708 -139.47998047 105.00341797 C-139.47977606 99.07087539 -139.50723767 93.13880526 -139.54152489 87.20637512 C-139.56376298 82.62182429 -139.56781919 78.03738855 -139.56676102 73.45278931 C-139.56911547 71.26476389 -139.57793015 69.07673524 -139.59342575 66.88876343 C-139.61305152 63.83565797 -139.60726402 60.78359141 -139.59521484 57.73046875 C-139.60645386 56.83477676 -139.61769287 55.93908478 -139.62927246 55.01625061 C-139.56478285 48.57592185 -138.22265438 44.07656096 -133.57519531 39.33813477 C-126.24966432 34.89017893 -117.94894334 32.51689224 -109.859375 29.83984375 C-108.15855454 29.26846925 -106.45803859 28.69618761 -104.7578125 28.12304688 C-100.38891648 26.65327155 -96.01599735 25.19592675 -91.64135742 23.74334717 C-89.23494092 22.94405074 -86.82922081 22.14270358 -84.42382812 21.34033203 C-83.67842773 21.091689 -82.93302734 20.84304596 -82.16503906 20.58686829 C-81.42995117 20.34163925 -80.69486328 20.09641022 -79.9375 19.84375 C-75.53222187 18.37420547 -71.12621001 16.90704754 -66.71679688 15.44995117 C-58.68163121 12.79035346 -50.67383302 10.06476143 -42.6875 7.26171875 C-40.94537655 6.65346236 -39.20318959 6.04538782 -37.4609375 5.4375 C-34.93506483 4.55608067 -32.41099481 3.6707794 -29.89160156 2.77099609 C-27.57726219 1.94444632 -25.25807072 1.13307719 -22.9375 0.32421875 C-22.26197083 0.07798767 -21.58644165 -0.16824341 -20.89044189 -0.42193604 C-13.42984226 -2.98827056 -7.45989923 -2.56111047 0 0 Z M28.265625 88.08984375 C27.481875 89.01796875 26.698125 89.94609375 25.890625 90.90234375 C25.14619141 91.71638672 25.14619141 91.71638672 24.38671875 92.546875 C20.30626838 97.04389107 16.60337791 101.81169649 12.92822266 106.63964844 C9.70829464 110.86333055 6.41105054 115.01744153 3.078125 119.15234375 C-1.42141561 124.75082337 -5.85481569 130.39696615 -10.234375 136.08984375 C-10.7910083 136.80881836 -11.3476416 137.52779297 -11.92114258 138.26855469 C-12.4395874 138.94563477 -12.95803223 139.62271484 -13.4921875 140.3203125 C-13.94996582 140.91610107 -14.40774414 141.51188965 -14.87939453 142.12573242 C-16.16278882 143.97949586 -17.14982996 145.86478095 -18.109375 147.90234375 C-21.76667243 145.85399872 -24.69158403 143.58972151 -27.734375 140.71484375 C-39.99777791 129.28157305 -39.99777791 129.28157305 -55.70703125 125.59375 C-61.69608229 126.36307526 -66.48098227 128.82657283 -70.546875 133.27734375 C-74.35896104 138.26156705 -75.70246577 143.26257441 -75.453125 149.49609375 C-73.86238297 160.63128796 -65.2955831 166.61298787 -57.11132812 173.26318359 C-54.59156742 175.3263145 -52.12770604 177.44930513 -49.66577148 179.58081055 C-47.38191592 181.55708259 -45.08297442 183.51535361 -42.78369141 185.47363281 C-41.66415276 186.42894634 -40.54664678 187.38664694 -39.43115234 188.34667969 C-37.82879772 189.72526291 -36.21993108 191.09585839 -34.609375 192.46484375 C-33.6915625 193.24988281 -32.77375 194.03492188 -31.828125 194.84375 C-26.27545154 199.04814499 -21.05116668 201.09675966 -14.109375 200.90234375 C-5.5596175 199.22019634 -0.64413 194.94728273 4.515625 188.02734375 C5.39643233 186.85884469 6.27796773 185.69089415 7.16015625 184.5234375 C7.61084473 183.9238623 8.0615332 183.32428711 8.52587891 182.70654297 C10.7183255 179.80812072 12.95721817 176.94693712 15.203125 174.08984375 C15.87891602 173.22891113 15.87891602 173.22891113 16.56835938 172.35058594 C20.16628866 167.78398339 23.83583562 163.27807089 27.515625 158.77734375 C31.99534874 153.29705934 36.30612702 147.72910762 40.5078125 142.03125 C42.86696243 138.93341542 45.3116743 135.92888199 47.79199219 132.92822266 C60.14298761 119.19687203 60.14298761 119.19687203 63.890625 101.90234375 C62.70362815 95.7787712 59.42793342 91.0949057 54.890625 86.90234375 C46.48330711 81.29746516 36.0549139 81.59876966 28.265625 88.08984375 Z " fill="#fffcfc" transform="translate(395.109375,2.09765625)"/>
<path d="M0 0 C1.80031478 0.00560586 3.60063418 0.00987127 5.4009552 0.01286316 C10.10439021 0.02423407 14.80754054 0.0536331 19.51086426 0.0869751 C24.32426098 0.11784457 29.13770438 0.13140432 33.95117188 0.14648438 C43.36991569 0.17851137 52.78844966 0.22961216 62.20703125 0.29296875 C62.47430023 1.3079393 62.74156921 2.32290985 63.01693726 3.36863708 C63.37498704 4.72160772 63.73311498 6.07455767 64.09130859 7.42749023 C64.26657578 8.09392296 64.44184296 8.76035568 64.62242126 9.44698334 C66.13897938 15.16476409 67.91252029 20.76255739 69.83203125 26.35546875 C70.13109375 27.23912109 70.43015625 28.12277344 70.73828125 29.03320312 C71.29029065 30.66358486 71.8441807 32.29333245 72.40087891 33.92211914 C73.34829961 36.70843122 74.27725456 39.50072538 75.20703125 42.29296875 C73.62088768 42.30176811 73.62088768 42.30176811 72.00270081 42.31074524 C62.01309479 42.36808232 52.02370417 42.44090112 42.03431797 42.52868366 C36.89927823 42.57331591 31.76431652 42.61258774 26.62915039 42.6394043 C21.66879701 42.6655086 16.70874507 42.70596124 11.74857903 42.75615501 C9.86090801 42.77277562 7.97318492 42.78431971 6.08545113 42.79058266 C3.43108007 42.80027626 0.7774719 42.8283974 -1.87670898 42.8605957 C-2.64851501 42.85916061 -3.42032104 42.85772552 -4.21551514 42.85624695 C-10.4924275 42.96317902 -16.68436491 44.1648197 -21.93945312 47.76245117 C-27.68593037 54.50641915 -30.85377289 62.54112181 -34.29296875 70.60546875 C-34.98064921 72.18859277 -35.66955338 73.77118574 -36.35961914 75.35327148 C-38.15684886 79.48446473 -39.93539174 83.62342729 -41.70880127 87.76489258 C-43.15287202 91.132196 -44.60675363 94.49522489 -46.06051636 97.85835266 C-49.04682686 104.76922606 -52.02237934 111.68470317 -54.9765625 118.609375 C-55.24871078 119.24522522 -55.52085907 119.88107544 -55.80125427 120.53619385 C-56.89373738 123.10354792 -57.91004966 125.64421149 -58.79296875 128.29296875 C-57.75543426 128.28282903 -56.71789976 128.2726893 -55.64892483 128.26224232 C-30.35796341 128.01762409 -5.06715611 127.83708661 20.22474003 127.72303486 C32.45600086 127.66640835 44.6864784 127.589261 56.91723633 127.46313477 C67.58249009 127.35320515 78.24717637 127.28246015 88.91298097 127.25799531 C94.55640639 127.24370253 100.19820895 127.21031719 105.84111214 127.12993813 C111.16284721 127.05475466 116.4823058 127.0323429 121.80452156 127.04878426 C123.74792903 127.04578077 125.69141993 127.02420292 127.63436508 126.98170853 C140.97374399 126.70449957 148.73777732 129.04052025 158.74101722 138.01665914 C161.94443674 140.80555136 165.61632901 142.97994935 169.20703125 145.23046875 C169.98264404 145.71717041 170.75825684 146.20387207 171.55737305 146.70532227 C193.49764554 160.23151216 217.6230155 174.19138508 244.30859375 168.5625 C257.63227529 164.74194121 271.16438801 158.19234442 282.55078125 150.32421875 C285.83325102 148.23575203 285.83325102 148.23575203 288.9375 148.7109375 C303.63436837 158.95574247 311.44828202 177.5840518 314.77803421 194.56905174 C315.45272654 198.8530112 315.50202425 203.07231115 315.49755859 207.40161133 C315.50427582 208.35754684 315.51099304 209.31348236 315.51791382 210.29838562 C315.53676079 213.4281447 315.54081113 216.55768786 315.54296875 219.6875 C315.54940542 221.88409001 315.55613442 224.08067919 315.56314087 226.27726746 C315.57508006 230.87081895 315.57882511 235.46429543 315.57763672 240.05786133 C315.57743362 245.9148543 315.60474255 251.77136162 315.63918114 257.62823963 C315.66152623 262.16243151 315.66547194 266.69650785 315.66441727 271.23074913 C315.66676151 273.3886959 315.67551786 275.54664643 315.691082 277.70453835 C315.78117974 291.48459013 315.84693752 304.45310509 307.70703125 316.29296875 C306.85625 317.56140625 306.85625 317.56140625 305.98828125 318.85546875 C296.90596049 331.28390769 284.36182399 338.79731076 269.20703125 341.29296875 C253.22798096 342.62756212 239.24968858 338.44711326 226.45703125 328.66796875 C217.3766749 320.17636369 212.17750857 309.17487803 209.20703125 297.29296875 C209.20703125 290.69296875 209.20703125 284.09296875 209.20703125 277.29296875 C124.72703125 277.29296875 40.24703125 277.29296875 -46.79296875 277.29296875 C-46.79296875 281.91296875 -46.79296875 286.53296875 -46.79296875 291.29296875 C-48.51155373 306.76023356 -55.10012965 320.27333193 -67.14453125 330.40625 C-80.24633141 339.7398333 -94.69953941 343.37880287 -110.7109375 340.828125 C-124.91157871 337.36505377 -137.05639291 329.4624026 -145.484375 317.453125 C-151.61887328 307.32662486 -154.10211623 297.42114374 -154.06762695 285.6809082 C-154.07529335 284.30815483 -154.07529335 284.30815483 -154.08311462 282.90766907 C-154.09691925 279.90712793 -154.09606022 276.90681897 -154.09375 273.90625 C-154.09764297 271.80030738 -154.10197887 269.69436553 -154.10673523 267.58842468 C-154.11417864 263.18140109 -154.11392056 258.77445762 -154.10864258 254.36743164 C-154.10286175 248.75383762 -154.11975477 243.14057503 -154.14298725 237.52703571 C-154.15781067 233.17809673 -154.15858445 228.82923589 -154.15547752 224.48027611 C-154.15598679 222.41248101 -154.16114932 220.34468108 -154.17128944 218.27691078 C-154.26199273 197.18904902 -151.26387086 178.94658342 -138.79296875 161.29296875 C-138.25929687 160.51179687 -137.725625 159.730625 -137.17578125 158.92578125 C-132.44723336 152.38726287 -126.04100083 145.51957622 -118.50390625 142.32177734 C-108.65964617 137.77958131 -106.23333622 128.74890357 -102.41796875 119.29296875 C-101.65903127 117.48031706 -100.89675223 115.66906127 -100.13134766 113.85913086 C-98.51064238 110.01827879 -96.90564212 106.17137871 -95.31054688 102.31982422 C-91.47953926 93.10434778 -87.46208486 83.96954284 -83.46453857 74.82543945 C-81.80110778 71.01512347 -80.14737063 67.20064213 -78.49395752 63.38597107 C-76.96778047 59.86833983 -75.43511245 56.35355861 -73.90155029 52.83914185 C-73.15882861 51.13327007 -72.41865817 49.42628537 -71.68096924 47.7182312 C-70.61988403 45.26143354 -69.55097086 42.80817491 -68.48046875 40.35546875 C-68.17160736 39.63480728 -67.86274597 38.91414581 -67.54452515 38.17164612 C-61.49261097 24.39020404 -51.21794455 13.72458335 -37.85546875 6.91796875 C-37.22374756 6.59602539 -36.59202637 6.27408203 -35.94116211 5.94238281 C-24.07430172 0.25495638 -12.89357228 -0.11878757 0 0 Z M-86.60546875 201.5078125 C-90.25221711 206.98993093 -90.61981821 213.01136215 -89.3984375 219.3359375 C-87.62541705 225.2498186 -83.83325841 228.87738785 -78.79296875 232.29296875 C-75.20744775 233.96508604 -72.3562688 234.55379201 -68.41113281 234.59936523 C-66.83359222 234.62334633 -66.83359222 234.62334633 -65.22418213 234.64781189 C-64.09703796 234.65317459 -62.9698938 234.65853729 -61.80859375 234.6640625 C-60.63842712 234.67309097 -59.4682605 234.68211945 -58.26263428 234.69142151 C-55.78807124 234.70591728 -53.31346992 234.71480906 -50.83886719 234.71850586 C-47.07029881 234.73038262 -43.30337834 234.77956246 -39.53515625 234.83007812 C-37.12631004 234.83954513 -34.71745381 234.84677883 -32.30859375 234.8515625 C-31.18954651 234.87109482 -30.07049927 234.89062714 -28.9175415 234.91075134 C-21.78134205 234.86999988 -16.49490962 233.7629469 -10.79296875 229.29296875 C-5.45269925 223.45560344 -4.36939048 218.1317724 -4.453125 210.4375 C-5.06478625 204.77787575 -7.38060661 200.49418322 -11.578125 196.6640625 C-16.03737458 193.34092747 -19.5072524 192.17381592 -24.96362305 192.1159668 C-26.01869553 192.10313156 -27.07376801 192.09029633 -28.16081238 192.07707214 C-29.87171806 192.06599174 -29.87171806 192.06599174 -31.6171875 192.0546875 C-33.38023979 192.04257988 -33.38023979 192.04257988 -35.1789093 192.03022766 C-37.66963222 192.0163875 -40.16037409 192.00566505 -42.65112305 191.99780273 C-46.44812315 191.98061517 -50.24424693 191.93672947 -54.04101562 191.89257812 C-56.46223319 191.88244885 -58.88345815 191.87393348 -61.3046875 191.8671875 C-62.43517014 191.84967941 -63.56565277 191.83217133 -64.73039246 191.81413269 C-74.10301863 191.83973915 -80.67187803 193.91346134 -86.60546875 201.5078125 Z M169.39453125 201.5078125 C165.74778289 206.98993093 165.38018179 213.01136215 166.6015625 219.3359375 C168.37458295 225.2498186 172.16674159 228.87738785 177.20703125 232.29296875 C180.79255225 233.96508604 183.6437312 234.55379201 187.58886719 234.59936523 C189.16640778 234.62334633 189.16640778 234.62334633 190.77581787 234.64781189 C191.90296204 234.65317459 193.0301062 234.65853729 194.19140625 234.6640625 C195.36157288 234.67309097 196.5317395 234.68211945 197.73736572 234.69142151 C200.21192876 234.70591728 202.68653008 234.71480906 205.16113281 234.71850586 C208.92970119 234.73038262 212.69662166 234.77956246 216.46484375 234.83007812 C218.87368996 234.83954513 221.28254619 234.84677883 223.69140625 234.8515625 C224.81045349 234.87109482 225.92950073 234.89062714 227.0824585 234.91075134 C234.21865795 234.86999988 239.50509038 233.7629469 245.20703125 229.29296875 C250.54730075 223.45560344 251.63060952 218.1317724 251.546875 210.4375 C250.93521375 204.77787575 248.61939339 200.49418322 244.421875 196.6640625 C239.96262542 193.34092747 236.4927476 192.17381592 231.03637695 192.1159668 C229.98130447 192.10313156 228.92623199 192.09029633 227.83918762 192.07707214 C226.12828194 192.06599174 226.12828194 192.06599174 224.3828125 192.0546875 C222.61976021 192.04257988 222.61976021 192.04257988 220.8210907 192.03022766 C218.33036778 192.0163875 215.83962591 192.00566505 213.34887695 191.99780273 C209.55187685 191.98061517 205.75575307 191.93672947 201.95898438 191.89257812 C199.53776681 191.88244885 197.11654185 191.87393348 194.6953125 191.8671875 C193.56482986 191.84967941 192.43434723 191.83217133 191.26960754 191.81413269 C181.89698137 191.83973915 175.32812197 193.91346134 169.39453125 201.5078125 Z " fill="#fffcfc" transform="translate(153.79296875,170.70703125)"/>
</svg>
